
    <svg xmlns="http://www.w3.org/2000/svg" viewBox="0 0 760 620">
      <defs>
        <linearGradient id="bg" x1="0%" y1="0%" x2="100%" y2="100%">
          <stop offset="0%" stop-color="#f8fbff"/>
          <stop offset="100%" stop-color="#e9f2ff"/>
        </linearGradient>
        <linearGradient id="panel" x1="0%" y1="0%" x2="100%" y2="100%">
          <stop offset="0%" stop-color="#ffffff"/>
          <stop offset="100%" stop-color="#eef4ff"/>
        </linearGradient>
        <filter id="shadow" x="-20%" y="-20%" width="140%" height="140%">
          <feDropShadow dx="0" dy="8" stdDeviation="12" flood-color="#0f172a" flood-opacity="0.12"/>
        </filter>
      </defs>
      <rect width="760" height="620" rx="28" fill="url(#bg)"/>
      <rect x="22" y="22" width="716" height="576" rx="26" fill="url(#panel)" filter="url(#shadow)"/>
      <rect x="44" y="44" width="132" height="60" rx="14" fill="#123a69"/>
      <text x="110" y="84" font-size="36" text-anchor="middle" fill="#fff" font-weight="800">M1b</text>
      <text x="208" y="82" font-size="30" fill="#123a69" font-weight="700">Metástasis ósea por sitio anatómico</text>
      
      <text x="108" y="158" font-size="20" fill="#123a69" font-weight="700">Carga ósea</text>
      <text x="108" y="188" font-size="15" fill="#475569">Axial: 1</text>
      <text x="108" y="214" font-size="15" fill="#475569">Apendicular: 2</text>
      <text x="108" y="240" font-size="15" fill="#475569">Total: 3</text>
      <text x="525" y="158" font-size="20" fill="#123a69" font-weight="700">Distribución</text>
      <text x="525" y="188" font-size="15" fill="#475569">El dibujo respeta el sitio y número</text>
      <text x="525" y="212" font-size="15" fill="#475569">capturados en ingreso o visita.</text>
      <circle cx="380" cy="150" r="28" fill="#dbeafe" stroke="#93c5fd" stroke-width="5"/>
      <rect x="362" y="178" width="36" height="92" rx="16" fill="#dbeafe" stroke="#93c5fd" stroke-width="5"/>
      <rect x="310" y="218" width="140" height="72" rx="32" fill="#dbeafe" stroke="#93c5fd" stroke-width="5"/>
      <rect x="350" y="268" width="60" height="118" rx="26" fill="#dbeafe" stroke="#93c5fd" stroke-width="5"/>
      <rect x="280" y="230" width="34" height="116" rx="18" transform="rotate(24 280 230)" fill="#dbeafe" stroke="#93c5fd" stroke-width="5"/>
      <rect x="454" y="230" width="34" height="116" rx="18" transform="rotate(-24 454 230)" fill="#dbeafe" stroke="#93c5fd" stroke-width="5"/>
      <rect x="334" y="382" width="34" height="128" rx="18" transform="rotate(4 334 382)" fill="#dbeafe" stroke="#93c5fd" stroke-width="5"/>
      <rect x="394" y="382" width="34" height="128" rx="18" transform="rotate(-4 394 382)" fill="#dbeafe" stroke="#93c5fd" stroke-width="5"/>
      <rect x="330" y="500" width="30" height="90" rx="16" fill="#dbeafe" stroke="#93c5fd" stroke-width="5"/>
      <rect x="400" y="500" width="30" height="90" rx="16" fill="#dbeafe" stroke="#93c5fd" stroke-width="5"/>
      <circle cx="348" cy="242" r="6" fill="#f97316" opacity="0.95"/><circle cx="348" cy="242" r="10" fill="#f97316" opacity="0.18"/><circle cx="338" cy="464" r="6" fill="#f97316" opacity="0.95"/><circle cx="338" cy="464" r="10" fill="#f97316" opacity="0.18"/><circle cx="350" cy="464" r="6" fill="#f97316" opacity="0.95"/><circle cx="350" cy="464" r="10" fill="#f97316" opacity="0.18"/><rect x="358" y="456" rx="10" ry="10" width="26" height="20" fill="#082f49" opacity="0.9"/><text x="371" y="470" font-size="11" text-anchor="middle" fill="#e0f2fe" font-weight="700">x2</text>
      <rect x="470" y="248" width="226" height="112" rx="18" fill="#fff7ed" stroke="#fdba74"/>
      <text x="492" y="280" font-size="18" fill="#9a3412" font-weight="700">Sitios capturados</text>
      <text x="492" y="308" font-size="15" fill="#7c2d12">Costillas / tórax: 1</text><text x="492" y="332" font-size="15" fill="#7c2d12">Fémur: 2</text>
    
      <text x="380" y="594" font-size="16" text-anchor="middle" fill="#334155">hueso: 1 Costillas / tórax, 2 Fémur</text>
    </svg>
    