
    <svg xmlns="http://www.w3.org/2000/svg" viewBox="0 0 760 620">
      <defs>
        <linearGradient id="bg" x1="0%" y1="0%" x2="100%" y2="100%">
          <stop offset="0%" stop-color="#f8fbff"/>
          <stop offset="100%" stop-color="#e9f2ff"/>
        </linearGradient>
        <linearGradient id="panel" x1="0%" y1="0%" x2="100%" y2="100%">
          <stop offset="0%" stop-color="#ffffff"/>
          <stop offset="100%" stop-color="#eef4ff"/>
        </linearGradient>
        <filter id="shadow" x="-20%" y="-20%" width="140%" height="140%">
          <feDropShadow dx="0" dy="8" stdDeviation="12" flood-color="#0f172a" flood-opacity="0.12"/>
        </filter>
      </defs>
      <rect width="760" height="620" rx="28" fill="url(#bg)"/>
      <rect x="22" y="22" width="716" height="576" rx="26" fill="url(#panel)" filter="url(#shadow)"/>
      <rect x="44" y="44" width="132" height="60" rx="14" fill="#123a69"/>
      <text x="110" y="84" font-size="36" text-anchor="middle" fill="#fff" font-weight="800">M1c</text>
      <text x="208" y="82" font-size="30" fill="#123a69" font-weight="700">Metástasis viscerales por órgano</text>
      
      <ellipse cx="330" cy="160" rx="52" ry="38" fill="#dbeafe" stroke="#93c5fd" stroke-width="4"/>
      <ellipse cx="330" cy="280" rx="54" ry="72" fill="#dbeafe" stroke="#93c5fd" stroke-width="4"/>
      <ellipse cx="420" cy="392" rx="84" ry="52" fill="#fed7aa" stroke="#fb923c" stroke-width="4"/>
      <ellipse cx="426" cy="284" rx="22" ry="18" fill="#c7d2fe" stroke="#818cf8" stroke-width="4"/>
      <path d="M444 230c46 0 66 22 66 50" stroke="#93c5fd" stroke-width="16" fill="none" stroke-linecap="round"/>
      <path d="M352 438c42 18 72 30 104 40" stroke="#fbcfe8" stroke-width="18" fill="none" stroke-linecap="round"/>
      <rect x="540" y="380" width="84" height="66" rx="16" fill="#ede9fe" stroke="#a78bfa" stroke-width="4"/>
      <text x="250" y="152" font-size="14" fill="#475569">Cerebro</text><text x="250" y="276" font-size="14" fill="#475569">Pulmón</text><text x="526" y="392" font-size="14" fill="#475569">Hígado</text><text x="526" y="286" font-size="14" fill="#475569">Suprarrenal</text><text x="526" y="252" font-size="14" fill="#475569">Pleura</text><text x="526" y="470" font-size="14" fill="#475569">Peritoneo</text><text x="526" y="414" font-size="14" fill="#475569">Otro</text>
      <circle cx="324" cy="272" r="6" fill="#f43f5e" opacity="0.95"/><circle cx="324" cy="272" r="10" fill="#f43f5e" opacity="0.18"/><circle cx="336" cy="272" r="6" fill="#f43f5e" opacity="0.95"/><circle cx="336" cy="272" r="10" fill="#f43f5e" opacity="0.18"/><rect x="344" y="264" rx="10" ry="10" width="26" height="20" fill="#082f49" opacity="0.9"/><text x="357" y="278" font-size="11" text-anchor="middle" fill="#e0f2fe" font-weight="700">x2</text><circle cx="432" cy="384" r="6" fill="#f43f5e" opacity="0.95"/><circle cx="432" cy="384" r="10" fill="#f43f5e" opacity="0.18"/>
      <rect x="82" y="448" width="598" height="82" rx="18" fill="#fff1f2" stroke="#fda4af"/>
      <text x="104" y="480" font-size="18" fill="#9f1239" font-weight="700">Distribución visceral documentada</text>
      <text x="104" y="508" font-size="15" fill="#881337">Pulmón: 2 · Hígado: 1</text>
    
      <text x="380" y="594" font-size="16" text-anchor="middle" fill="#334155">víscera: 2 Pulmón, 1 Hígado</text>
    </svg>
    